# xmcd
#
# Track frame offsets: 
#        150
#        12025
#        24995
#        43251
#        64154
#        85068
#        96725
#        110600
#        123471
#        136661
#        154592
#        169800
#        178344
#        194024
#        204458
#
# Disc length: 2914 seconds
#
# Revision: 1
# Processed by: cddbd v1.5.2PL0 Copyright (c) Steve Scherf et al.
# Submitted via: ExactAudioCopy v0.95b4
#
DISCID=d10b600f
DTITLE=Mike Penny and His Moonshiners - Don't Start Breathin' Down My Ne
DTITLE=ck!
DYEAR=2010
DGENRE=Western Swing
TTITLE0=Peroxide Blond
TTITLE1=Mr. Sandman
TTITLE2=When you're smiling
TTITLE3=Everybody's Swingin' And Truckin'
TTITLE4=I Aint't Got Nobody (And Nobody Cares For Me)
TTITLE5=Don't Start Breathing Down My Neck
TTITLE6=Why Do I Love You
TTITLE7=Mr. And Missisippi
TTITLE8=Don't Just Stand There
TTITLE9=I Had Someone Else
TTITLE10=It's All Your Fault
TTITLE11=Don't Cry, Baby
TTITLE12=So Round, So Firm, So Fully Packed
TTITLE13=I'm Sorry I Ever Met You
TTITLE14=Mr. Sandman (alt. version)
EXTD=
EXTT0=
EXTT1=
EXTT2=
EXTT3=
EXTT4=
EXTT5=
EXTT6=
EXTT7=
EXTT8=
EXTT9=
EXTT10=
EXTT11=
EXTT12=
EXTT13=
EXTT14=
PLAYORDER=
